<?xml version="1.0" standalone="no"?>
<!DOCTYPE svg PUBLIC "-//W3C//DTD SVG 20010904//EN"
 "http://www.w3.org/TR/2001/REC-SVG-20010904/DTD/svg10.dtd">
<svg version="1.0" xmlns="http://www.w3.org/2000/svg"
 width="842.000000pt" height="486.000000pt" viewBox="0 0 842.000000 486.000000"
 preserveAspectRatio="xMidYMid meet">

<g transform="translate(0.000000,486.000000) scale(0.100000,-0.100000)"
fill="#000000" stroke="none">
<path d="M1240 3299 c0 -6 9 -22 20 -36 11 -14 20 -39 20 -54 0 -19 5 -29 15
-29 9 0 15 10 15 26 0 14 11 40 25 58 30 40 31 46 5 46 -10 0 -25 -10 -31 -22
l-12 -22 -15 22 c-15 23 -42 30 -42 11z"/>
<path d="M3255 3301 c-78 -20 -126 -66 -167 -159 -45 -101 -18 -260 58 -336
93 -93 268 -96 363 -7 61 57 85 120 84 221 -1 130 -48 217 -141 265 -38 19
-152 28 -197 16z m186 -76 c85 -56 118 -219 65 -323 -28 -56 -49 -76 -99 -97
-82 -34 -186 -6 -231 62 -94 143 -31 364 110 386 53 8 118 -4 155 -28z m93
-31 c3 -8 2 -12 -4 -9 -6 3 -10 10 -10 16 0 14 7 11 14 -7z"/>
<path d="M5253 3303 c9 -2 25 -2 35 0 9 3 1 5 -18 5 -19 0 -27 -2 -17 -5z"/>
<path d="M1123 3293 c-25 -5 -27 -19 -17 -85 5 -29 11 -38 26 -38 16 0 19 5
14 25 -8 30 4 32 29 5 18 -20 55 -28 55 -12 0 5 -9 17 -20 27 -15 13 -17 21
-9 31 6 7 8 22 4 34 -6 20 -28 23 -82 13z m37 -43 c-20 -12 -33 -1 -19 16 9
11 15 12 23 4 8 -8 7 -13 -4 -20z"/>
<path d="M2580 3026 l0 -276 30 0 29 0 3 116 3 117 118 3 c140 4 170 16 205
84 28 56 28 94 -1 144 -39 69 -70 80 -239 84 l-148 4 0 -276z m285 209 c50
-25 70 -91 44 -148 -17 -38 -46 -47 -159 -50 l-105 -2 -3 94 c-1 52 -1 100 2
108 8 20 178 18 221 -2z"/>
<path d="M3707 3293 c-4 -3 -7 -127 -7 -275 l0 -268 30 0 30 0 0 223 c0 123 3
227 7 230 3 4 27 -28 52 -72 25 -43 89 -146 141 -229 95 -151 95 -152 133
-152 l37 0 -1 258 c0 153 -4 249 -9 237 -6 -14 -9 -15 -9 -5 -1 9 4 21 11 28
14 14 8 22 -26 28 l-26 4 0 -227 c0 -269 12 -267 -135 -28 -55 88 -102 162
-105 165 -3 3 -11 18 -18 33 -8 19 -18 27 -27 23 -8 -3 -17 -1 -20 4 -4 6 -1
10 4 10 6 0 11 4 11 9 0 10 -19 9 -37 -2 -8 -5 -13 -4 -13 2 0 12 -13 14 -23
4z"/>
<path d="M4267 3294 c-4 -4 -7 -128 -7 -276 l0 -268 138 0 c157 0 198 12 248
73 48 59 67 124 62 220 -4 84 -32 165 -56 160 -6 -2 -9 3 -6 10 6 17 -43 52
-93 67 -25 8 -84 11 -156 9 -65 -2 -118 0 -120 4 -1 5 -6 5 -10 1z m217 -22
c2 -4 -12 -6 -32 -4 -56 5 -62 10 -15 11 23 1 44 -3 47 -7z m56 -2 c18 -12 2
-12 -25 0 -13 6 -15 9 -5 9 8 0 22 -4 30 -9z m-205 -10 c-3 -5 -12 -7 -20 -3
-21 7 -19 13 6 13 11 0 18 -4 14 -10z m220 -33 c78 -43 112 -165 81 -287 -29
-111 -74 -140 -223 -140 l-82 0 -3 221 c-2 121 -1 223 1 225 2 2 45 4 95 4 75
0 98 -4 131 -23z m15 13 c0 -5 -7 -7 -15 -4 -8 4 -15 8 -15 10 0 2 7 4 15 4 8
0 15 -4 15 -10z m48 -12 c7 -7 12 -16 12 -20 0 -15 -15 -8 -28 12 -13 22 -3
27 16 8z"/>
<path d="M4858 3293 c-17 -4 -18 -26 -18 -274 l0 -269 30 0 30 0 -2 272 c-2
171 -7 272 -13 273 -5 2 -18 1 -27 -2z m32 -17 c0 -2 -9 -6 -20 -9 -11 -3 -20
-1 -20 4 0 5 9 9 20 9 11 0 20 -2 20 -4z"/>
<path d="M5170 3288 c-42 -15 -87 -59 -116 -110 -27 -49 -29 -60 -29 -158 1
-94 3 -110 27 -156 34 -65 75 -99 140 -119 65 -19 86 -19 145 1 71 24 112 59
139 121 30 68 30 73 -5 73 -26 0 -32 -6 -47 -46 -23 -60 -70 -96 -135 -102
-110 -10 -178 47 -200 170 -24 129 19 236 112 283 48 25 54 25 106 14 65 -15
98 -39 117 -84 11 -25 20 -32 41 -32 24 0 26 2 20 26 -3 14 -13 36 -21 49 -12
18 -18 21 -29 12 -17 -14 -35 -5 -34 18 1 15 2 15 6 0 5 -21 19 -23 26 -4 10
26 -61 49 -155 50 -48 1 -97 -2 -108 -6z m53 -5 c-7 -2 -19 -2 -25 0 -7 3 -2
5 12 5 14 0 19 -2 13 -5z m153 -7 c10 -8 15 -18 11 -22 -4 -5 -12 -2 -17 6 -6
8 -10 11 -10 7 0 -5 -6 -5 -12 0 -7 4 -26 7 -43 6 -29 -2 -29 -2 -5 6 38 13
54 12 76 -3z m-199 -10 c0 -8 -6 -12 -15 -8 -10 3 -13 1 -8 -6 4 -7 1 -12 -8
-12 -21 0 -20 10 2 26 22 17 29 17 29 0z"/>
<path d="M5980 3289 c0 -6 7 -9 15 -5 8 3 15 1 15 -4 0 -6 -6 -10 -14 -10 -10
0 -15 -22 -21 -83 -3 -45 -5 -89 -3 -97 2 -13 -22 -15 -149 -18 l-153 -3 0
111 c0 67 -4 110 -10 110 -5 0 -10 -6 -10 -14 0 -8 -7 -16 -15 -20 -10 -4 -15
1 -16 17 -5 79 -17 -125 -18 -305 l-1 -218 35 0 35 0 0 130 0 131 151 -3 150
-3 0 -127 0 -128 29 0 c26 0 30 5 36 36 4 20 4 141 0 268 -3 127 -6 234 -6
239 0 12 -50 8 -50 -4z"/>
<path d="M6180 3025 l0 -275 196 0 195 0 -3 28 -3 27 -162 3 -163 2 0 95 0 95
150 0 150 0 0 30 0 30 -150 0 -151 0 3 93 3 92 163 3 c162 2 163 3 160 25 -3
22 -6 22 -170 24 -150 2 -168 1 -168 -14 0 -15 -1 -15 -18 0 -10 10 -22 17
-25 17 -4 0 -7 -124 -7 -275z"/>
<path d="M6698 3294 c-4 -3 -7 -127 -8 -275 l-1 -269 36 0 35 0 0 120 0 120
104 0 c118 0 163 -12 177 -47 5 -13 12 -62 15 -109 l7 -84 39 0 c35 0 38 2 28
19 -5 11 -10 52 -10 91 0 76 -15 118 -51 144 l-21 14 25 17 c51 33 69 147 31
197 -38 51 -75 61 -244 65 -86 2 -159 1 -162 -3z m312 -59 c37 -19 50 -43 50
-95 0 -33 -6 -48 -29 -71 -29 -29 -30 -29 -150 -29 l-121 0 0 105 0 105 110 0
c79 0 119 -4 140 -15z"/>
<path d="M7260 3026 l0 -276 36 0 35 0 -2 118 -1 117 113 3 c107 2 116 1 143
-21 27 -22 30 -31 37 -113 4 -49 8 -92 8 -96 1 -5 20 -8 44 -8 23 0 37 4 31 8
-7 4 -16 54 -22 111 -9 98 -11 106 -38 128 l-29 23 27 23 c37 31 48 58 48 115
0 35 -6 57 -21 76 -41 52 -71 60 -246 64 l-163 4 0 -276z m337 191 c23 -23 28
-36 27 -77 0 -39 -5 -54 -24 -70 -33 -28 -50 -31 -168 -28 l-103 3 0 95 c0 52
0 99 0 103 1 5 55 7 121 5 115 -3 121 -4 147 -31z"/>
<path d="M7783 3278 c8 -13 54 -86 103 -163 l89 -140 1 -100 c0 -129 -1 -125
34 -125 l30 0 0 110 c0 99 11 160 30 160 4 0 12 12 19 26 6 14 33 59 60 100
27 41 56 88 63 104 7 17 16 30 20 30 5 0 8 5 8 10 0 19 -56 10 -77 -12 -11
-13 -46 -68 -78 -123 -31 -55 -62 -106 -69 -113 -11 -11 -28 11 -93 119 -78
129 -82 133 -117 137 -37 3 -37 3 -23 -20z"/>
<path d="M1456 3253 c-4 -16 -9 -36 -12 -45 -7 -25 31 -58 67 -58 25 0 32 6
45 35 18 44 18 75 -1 75 -8 0 -19 -16 -25 -40 -8 -30 -16 -40 -31 -40 -19 0
-20 4 -15 36 4 19 10 42 13 50 3 9 -2 14 -15 14 -13 0 -22 -9 -26 -27z"/>
<path d="M990 3256 c-40 -15 -40 -14 -21 -81 17 -61 15 -57 34 -49 12 4 15 13
11 30 -7 28 2 31 27 8 12 -10 25 -13 40 -9 l23 8 -26 18 c-18 13 -24 25 -21
39 5 19 -12 51 -26 49 -3 0 -22 -6 -41 -13z m40 -26 c0 -13 -28 -25 -38 -16
-3 4 0 11 8 16 20 13 30 12 30 0z"/>
<path d="M1598 3186 c-15 -30 -24 -57 -21 -60 13 -12 32 -5 38 14 9 30 25 24
25 -9 0 -31 25 -60 39 -45 15 16 49 102 43 108 -12 12 -31 5 -37 -14 -8 -26
-25 -16 -25 14 0 20 -16 46 -30 46 -3 0 -18 -24 -32 -54z"/>
<path d="M860 3198 c-19 -12 -36 -22 -37 -23 -3 -2 32 -73 45 -93 8 -11 17
-10 51 7 22 12 41 26 41 31 0 13 -16 13 -42 -1 -14 -8 -23 -8 -31 0 -7 7 -2
14 16 22 15 7 27 18 27 26 0 11 -6 11 -30 -2 -24 -13 -30 -13 -30 -2 0 8 12
19 26 25 14 7 22 17 19 22 -9 14 -15 13 -55 -12z"/>
<path d="M1737 3114 c-26 -43 -30 -74 -10 -74 14 0 64 92 59 106 -9 23 -20 16
-49 -32z"/>
<path d="M755 3130 c-4 -6 -1 -18 6 -26 10 -13 10 -17 -2 -25 -18 -11 -26 -11
-34 1 -8 13 -35 13 -35 0 0 -14 62 -100 72 -100 15 0 21 30 8 45 -6 8 -9 19
-5 25 10 16 33 12 44 -7 7 -14 12 -15 25 -4 14 11 12 18 -17 57 -32 43 -50 53
-62 34z"/>
<path d="M1205 3134 c-11 -2 -47 -9 -80 -15 -33 -7 -107 -34 -165 -62 -90 -44
-117 -63 -191 -136 -97 -97 -146 -176 -192 -310 -27 -78 -30 -98 -31 -226 0
-120 3 -150 23 -215 58 -186 158 -323 312 -425 169 -113 374 -151 564 -106
100 24 161 51 247 108 247 162 380 482 323 771 -49 242 -192 435 -398 536 -51
25 -121 52 -156 61 -65 17 -219 28 -256 19z m231 -44 c150 -35 277 -110 377
-220 113 -125 192 -338 185 -500 l-3 -75 -268 -3 c-224 -2 -268 0 -273 12 -4
11 -13 12 -37 5 -18 -5 -33 -9 -34 -9 -1 0 -7 16 -13 36 -12 34 -13 35 -31 18
-19 -17 -20 -17 -36 5 l-16 24 -18 -24 c-17 -23 -18 -23 -37 -6 -19 17 -20 17
-32 -13 -16 -39 -23 -42 -54 -30 -19 7 -27 6 -34 -6 -7 -12 -47 -14 -272 -12
l-265 3 1 105 c1 143 36 261 111 378 160 251 469 380 749 312z m-121 -777 c39
-68 46 -167 15 -205 -31 -40 -74 -38 -100 5 -19 30 -20 31 -20 8 0 -23 -1 -23
-19 -7 -23 21 -56 96 -65 149 -6 30 -4 37 9 37 32 0 75 -30 75 -53 1 -17 2
-19 9 -7 13 23 24 68 13 51 -15 -21 -42 -6 -35 19 8 29 24 36 39 16 11 -16 14
-16 29 8 10 14 19 26 20 26 2 0 15 -21 30 -47z m50 7 c7 -21 0 -40 -15 -40
-12 0 -23 37 -15 50 10 16 23 12 30 -10z m75 -44 c0 -36 -27 -106 -56 -143
-14 -19 -28 -32 -30 -30 -3 2 -1 23 5 46 5 22 5 57 1 76 -6 26 -4 37 9 48 37
33 71 34 71 3z m-322 -33 l3 -23 -268 3 -268 2 -3 23 -3 22 268 -2 268 -3 3
-22z m870 5 l-3 -23 -260 -3 c-143 -1 -265 0 -272 2 -6 3 -9 14 -6 25 5 21 11
21 275 21 l269 0 -3 -22z m-858 -58 c0 -5 -23 -10 -51 -10 -42 0 -52 -3 -56
-20 -5 -19 -14 -20 -209 -20 l-204 0 -10 26 c-6 14 -10 27 -10 30 0 2 122 4
270 4 173 0 270 -4 270 -10z m840 -4 c0 -46 -1 -46 -216 -46 -168 0 -204 2
-204 14 0 18 -22 26 -76 26 -24 0 -44 5 -44 10 0 6 97 10 270 10 226 0 270 -2
270 -14z m-810 -51 c12 -19 31 -40 41 -46 11 -5 17 -14 14 -20 -9 -14 -72 -11
-104 6 -35 17 -83 73 -75 86 3 5 27 9 54 9 45 0 50 -3 70 -35z m367 19 c5 -17
-68 -83 -102 -93 l-30 -9 32 -1 c37 -1 75 -43 55 -63 -24 -24 -152 23 -152 56
0 8 13 27 28 43 16 15 37 41 47 56 16 25 23 28 68 25 28 -2 52 -8 54 -14z
m-467 -58 c49 -41 27 -46 -204 -46 l-211 0 -12 27 c-7 15 -13 31 -13 35 0 4
93 8 206 8 202 0 207 0 234 -24z m890 19 c0 -4 -7 -19 -15 -35 l-16 -30 -231
0 -232 0 34 35 34 35 213 0 c117 0 213 -2 213 -5z m-636 -81 c12 -61 -25 -132
-49 -94 -3 6 -12 10 -18 10 -7 -1 -1 -10 13 -21 l24 -21 23 27 c13 14 23 37
23 51 0 29 -2 28 41 7 19 -9 54 -17 79 -18 42 0 45 2 48 28 l3 27 200 0 c152
0 199 -3 199 -12 0 -7 -16 -36 -36 -65 l-36 -53 -544 0 -543 0 -40 57 c-23 31
-41 60 -41 65 0 4 87 8 193 8 181 0 193 -1 205 -20 15 -24 79 -27 121 -5 31
15 41 12 41 -16 0 -10 4 -20 9 -24 6 -3 8 8 4 28 -7 47 11 77 46 77 25 0 30
-5 35 -36z m-94 14 c0 -25 -100 -56 -139 -43 -24 7 -26 18 -7 37 14 15 146 20
146 6z m560 -186 c0 -5 -12 -19 -27 -33 -163 -148 -412 -213 -621 -163 -91 22
-237 93 -294 144 -27 23 -48 46 -48 51 0 5 205 9 495 9 272 -1 495 -4 495 -8z"/>
<path d="M1220 3023 c0 -22 11 -37 27 -40 7 -2 6 7 -4 27 -17 34 -23 38 -23
13z"/>
<path d="M1297 3000 c-4 -18 -5 -35 -2 -38 3 -3 5 1 5 9 0 11 2 11 10 -1 8
-12 10 -12 9 5 0 11 -4 29 -8 40 -7 16 -9 14 -14 -15z"/>
<path d="M1140 3014 c0 -15 27 -50 34 -43 4 3 -2 17 -13 30 -11 13 -20 19 -21
13z"/>
<path d="M1366 2980 c-15 -22 -31 -38 -36 -35 -6 4 -10 -1 -10 -10 0 -12 8
-10 35 12 19 15 38 36 41 46 11 34 -3 28 -30 -13z"/>
<path d="M1445 2970 c-10 -11 -14 -20 -8 -20 5 0 18 9 28 20 10 11 14 20 8 20
-5 0 -18 -9 -28 -20z"/>
<path d="M1040 2972 c0 -4 20 -21 43 -39 23 -18 55 -44 70 -59 16 -14 30 -24
33 -21 2 2 -11 16 -31 31 -19 15 -33 31 -30 36 3 4 -15 20 -40 33 -25 14 -45
23 -45 19z"/>
<path d="M1228 2950 c-7 -24 -3 -38 8 -28 3 4 4 17 2 30 l-3 23 -7 -25z"/>
<path d="M1281 2934 c0 -11 3 -14 6 -6 3 7 2 16 -1 19 -3 4 -6 -2 -5 -13z"/>
<path d="M1394 2935 c-12 -8 -24 -11 -28 -8 -3 3 -6 -1 -6 -11 0 -16 3 -15 30
4 17 12 30 23 30 26 0 7 -4 5 -26 -11z"/>
<path d="M1515 2931 c-22 -11 -35 -20 -30 -20 6 -1 -6 -15 -25 -32 -23 -20
-11 -14 35 16 39 26 72 49 74 51 10 10 -17 2 -54 -15z"/>
<path d="M1420 2925 c-11 -13 -10 -14 4 -9 9 3 16 10 16 15 0 13 -6 11 -20 -6z"/>
<path d="M1188 2905 c2 -14 8 -22 13 -19 5 3 5 14 -1 25 -14 26 -18 24 -12 -6z"/>
<path d="M1141 2917 c2 -1 13 -9 24 -17 19 -14 19 -14 6 3 -7 9 -18 17 -24 17
-6 0 -8 -1 -6 -3z"/>
<path d="M1440 2900 c-8 -5 -10 -10 -5 -10 6 0 17 5 25 10 8 5 11 10 5 10 -5
0 -17 -5 -25 -10z"/>
<path d="M1390 2885 c-8 -9 -8 -15 -2 -15 12 0 26 19 19 26 -2 2 -10 -2 -17
-11z"/>
<path d="M1075 2830 c-25 -11 1 -11 35 0 20 6 21 8 5 8 -11 0 -29 -3 -40 -8z"/>
<path d="M1405 2830 c3 -5 14 -10 23 -10 15 0 15 2 2 10 -20 13 -33 13 -25 0z"/>
<path d="M1018 2813 c7 -3 16 -2 19 1 4 3 -2 6 -13 5 -11 0 -14 -3 -6 -6z"/>
<path d="M920 2795 l-45 -13 43 -1 c23 -1 42 3 42 8 0 5 8 12 18 14 11 3 12 5
2 5 -8 0 -35 -6 -60 -13z"/>
<path d="M1490 2800 c8 -5 22 -9 30 -9 10 0 8 3 -5 9 -27 12 -43 12 -25 0z"/>
<path d="M1126 2774 c-6 -15 -4 -15 11 -3 10 7 20 15 22 16 2 2 -3 3 -11 3 -9
0 -19 -7 -22 -16z"/>
<path d="M1415 2770 c10 -11 20 -18 23 -15 7 6 -18 35 -31 35 -5 0 -2 -9 8
-20z"/>
<path d="M1500 2770 c14 -4 36 -8 50 -8 22 0 22 1 -5 8 -16 4 -39 8 -50 8 -16
0 -15 -2 5 -8z"/>
<path d="M1590 2771 c13 -9 13 -11 0 -12 -8 -1 6 -5 32 -9 25 -5 57 -11 70
-15 14 -5 19 -4 13 2 -5 5 -30 15 -54 22 -23 7 -50 15 -60 18 -14 4 -14 3 -1
-6z"/>
<path d="M1069 2733 c-13 -17 -13 -17 6 -3 11 8 22 16 24 17 2 2 0 3 -6 3 -6
0 -17 -8 -24 -17z"/>
<path d="M1164 2735 c-4 -8 -10 -12 -15 -9 -5 3 -17 0 -26 -6 -15 -9 -14 -10
6 -4 19 5 23 3 18 -10 -10 -25 -1 -19 23 14 12 17 16 30 10 30 -6 0 -13 -7
-16 -15z"/>
<path d="M1179 2693 c-24 -28 -24 -28 0 -8 13 11 26 19 29 17 4 -2 8 1 10 7 7
20 -14 11 -39 -16z"/>
<path d="M1405 2700 c19 -21 30 -27 20 -10 -8 13 1 13 26 0 10 -6 19 -8 19 -6
0 8 -57 36 -71 36 -7 0 -5 -8 6 -20z"/>
<path d="M1064 2694 c-18 -14 -18 -14 6 -3 31 14 36 19 24 19 -6 0 -19 -7 -30
-16z"/>
<path d="M1510 2700 c0 -5 5 -10 11 -10 5 0 7 5 4 10 -3 6 -8 10 -11 10 -2 0
-4 -4 -4 -10z"/>
<path d="M1251 2690 c0 -8 4 -24 9 -35 5 -13 9 -14 9 -5 0 8 -4 24 -9 35 -5
13 -9 14 -9 5z"/>
<path d="M1360 2690 c0 -5 9 -14 19 -20 31 -16 37 -12 13 10 -23 22 -32 25
-32 10z"/>
<path d="M1109 2663 c-13 -16 -12 -17 4 -4 9 7 17 15 17 17 0 8 -8 3 -21 -13z"/>
<path d="M1310 2676 c0 -2 7 -9 15 -16 13 -11 14 -10 9 4 -5 14 -24 23 -24 12z"/>
<path d="M887 2627 c-37 -22 -66 -41 -64 -43 9 -9 146 62 139 72 -4 7 -31 -3
-75 -29z"/>
<path d="M990 2660 c-8 -5 -10 -10 -5 -10 6 0 17 5 25 10 8 5 11 10 5 10 -5 0
-17 -5 -25 -10z"/>
<path d="M1186 2655 c-9 -26 -7 -32 5 -12 6 10 9 21 6 23 -2 3 -7 -2 -11 -11z"/>
<path d="M1430 2666 c0 -2 8 -10 18 -17 15 -13 16 -12 3 4 -13 16 -21 21 -21
13z"/>
<path d="M1084 2638 c4 -13 -3 -22 -23 -33 -32 -16 -141 -115 -127 -115 8 0
157 119 186 148 13 14 13 15 -3 2 -16 -12 -20 -12 -29 1 -8 11 -9 11 -4 -3z"/>
<path d="M1206 2633 c-6 -14 -5 -15 5 -6 7 7 10 15 7 18 -3 3 -9 -2 -12 -12z"/>
<path d="M1420 2644 c0 -6 14 -23 30 -37 17 -15 30 -22 30 -15 0 6 3 8 7 4 4
-4 8 -15 8 -24 0 -9 6 -16 13 -14 6 1 12 -2 12 -8 0 -12 81 -100 93 -100 15 0
-118 153 -136 156 -10 1 -26 13 -37 26 -11 12 -19 18 -20 12z"/>
<path d="M1557 2629 c7 -7 15 -10 18 -7 3 3 -2 9 -12 12 -14 6 -15 5 -6 -5z"/>
<path d="M1350 2628 c0 -4 9 -22 20 -40 11 -18 20 -28 20 -23 0 6 -9 24 -20
40 -11 17 -20 27 -20 23z"/>
<path d="M1595 2621 c-3 -5 -2 -12 2 -14 147 -82 171 -85 60 -9 -53 36 -53 36
-62 23z m30 -11 c3 -6 -1 -7 -9 -4 -18 7 -21 14 -7 14 6 0 13 -4 16 -10z"/>
<path d="M1290 2596 c0 -16 -4 -25 -10 -21 -5 3 -10 -3 -10 -14 0 -11 4 -22 9
-25 10 -7 26 72 17 81 -3 4 -6 -6 -6 -21z"/>
<path d="M1390 2615 c0 -5 5 -17 10 -25 5 -8 10 -10 10 -5 0 6 -5 17 -10 25
-5 8 -10 11 -10 5z"/>
<path d="M1185 2600 c-4 -6 -10 -8 -14 -6 -8 5 -55 -83 -48 -90 2 -2 14 10 26
27 13 17 20 33 17 36 -3 3 5 14 17 24 12 10 19 18 15 19 -4 0 -10 -5 -13 -10z"/>
<path d="M1408 2555 c-8 -8 0 -30 25 -70 17 -27 18 -28 12 -5 -14 48 -30 82
-37 75z"/>
<path d="M1203 2185 c0 -22 2 -30 4 -17 2 12 2 30 0 40 -3 9 -5 -1 -4 -23z"/>
<path d="M1353 2053 c9 -2 23 -2 30 0 6 3 -1 5 -18 5 -16 0 -22 -2 -12 -5z"/>
<path d="M1093 1813 c-7 -3 -12 -17 -12 -31 1 -21 2 -23 6 -7 3 11 10 23 16
27 14 9 6 17 -10 11z"/>
<path d="M1350 1810 c-12 -7 -10 -9 8 -7 12 0 22 5 22 9 0 11 -12 10 -30 -2z"/>
<path d="M1390 1809 c0 -5 5 -7 10 -4 6 3 10 8 10 11 0 2 -4 4 -10 4 -5 0 -10
-5 -10 -11z"/>
<path d="M960 1799 c0 -5 5 -7 10 -4 6 3 10 8 10 11 0 2 -4 4 -10 4 -5 0 -10
-5 -10 -11z"/>
<path d="M1222 1785 c0 -16 2 -22 5 -12 2 9 2 23 0 30 -3 6 -5 -1 -5 -18z"/>
<path d="M1521 1793 c-1 -23 22 -32 34 -13 3 5 0 7 -9 4 -8 -3 -16 2 -19 13
-4 14 -5 14 -6 -4z"/>
<path d="M995 1780 c3 -5 8 -10 11 -10 2 0 4 5 4 10 0 6 -5 10 -11 10 -5 0 -7
-4 -4 -10z"/>
<path d="M1391 1774 c0 -11 3 -14 6 -6 3 7 2 16 -1 19 -3 4 -6 -2 -5 -13z"/>
<path d="M1820 3094 c-6 -16 -15 -41 -21 -56 -13 -33 -6 -58 16 -58 21 0 105
49 105 61 0 14 -34 10 -58 -7 -31 -22 -36 -13 -18 29 12 31 12 37 0 47 -11 10
-16 7 -24 -16z"/>
<path d="M627 3019 c-28 -16 -37 -50 -21 -81 29 -57 114 -40 114 22 0 22 -4
28 -15 24 -8 -4 -15 -14 -15 -24 0 -25 -16 -33 -40 -20 -26 14 -26 50 0 57 11
3 20 12 20 19 0 16 -18 18 -43 3z"/>
<path d="M1902 2970 l-44 -39 34 -40 c20 -24 37 -36 42 -31 6 6 3 17 -7 28
-17 19 -23 42 -10 42 3 0 15 -7 25 -17 24 -21 36 -9 15 15 -20 22 -21 32 -4
32 7 0 18 -9 25 -20 15 -24 37 -27 28 -4 -7 19 -49 73 -56 73 -3 0 -25 -17
-48 -39z"/>
<path d="M537 2913 c-4 -3 -7 -9 -7 -13 0 -9 86 -70 99 -70 24 0 9 30 -31 59
-44 33 -51 35 -61 24z"/>
<path d="M1988 2862 c-26 -15 -48 -32 -48 -39 0 -19 20 -26 36 -12 20 17 31 2
16 -22 -17 -27 -6 -65 14 -48 8 6 14 18 14 25 0 9 11 14 29 14 17 0 31 6 35
16 5 14 -32 95 -44 93 -3 0 -26 -12 -52 -27z m62 -38 c0 -16 -16 -19 -25 -4
-8 13 4 32 16 25 5 -4 9 -13 9 -21z"/>
<path d="M480 2808 c-11 -18 -20 -38 -20 -44 0 -9 81 -54 99 -54 11 0 31 47
31 75 0 27 -34 55 -67 55 -16 0 -30 -11 -43 -32z m78 -35 c4 -26 2 -27 -33
-11 -35 16 -33 40 3 36 19 -2 28 -9 30 -25z"/>
<path d="M2070 2731 c-5 -11 -9 -30 -7 -42 1 -12 -4 -24 -11 -27 -9 -3 -13 3
-12 19 4 46 1 53 -15 39 -34 -28 -1 -93 43 -88 24 3 28 9 33 48 6 43 11 46 13
6 1 -11 7 -21 15 -24 11 -4 13 3 8 33 -9 54 -46 74 -67 36z"/>
<path d="M430 2695 c0 -8 11 -17 25 -21 35 -9 31 -21 -9 -28 -28 -5 -46 -21
-46 -41 0 -5 92 -35 107 -35 24 0 13 28 -14 38 -29 10 -29 10 30 31 40 15 33
34 -22 54 -59 21 -71 21 -71 2z"/>
<path d="M2083 2599 c-30 -9 -42 -27 -28 -41 10 -10 115 25 115 39 0 15 -38
16 -87 2z"/>
<path d="M400 2530 c-43 -43 -14 -110 48 -110 25 0 35 6 47 30 20 39 19 47
-10 75 -29 30 -58 32 -85 5z m76 -35 c9 -23 -13 -43 -41 -37 -24 4 -34 30 -18
45 12 13 54 7 59 -8z"/>
<path d="M2157 2544 c-3 -3 -3 -12 0 -20 5 -13 -8 -18 -62 -26 -11 -2 -21 -12
-23 -22 -4 -17 1 -18 43 -13 42 6 48 5 52 -13 3 -12 10 -19 15 -18 12 4 12 4
4 66 -6 48 -14 61 -29 46z"/>
<path d="M2152 2380 c-18 -11 -44 -20 -57 -20 -18 0 -25 -5 -25 -20 0 -16 7
-20 31 -20 17 0 43 -9 57 -21 24 -19 27 -19 30 -4 2 9 -5 23 -15 31 -17 14
-17 15 5 30 21 16 31 44 15 44 -5 0 -23 -9 -41 -20z"/>
<path d="M387 2384 c-4 -4 -7 -27 -7 -51 l0 -43 60 0 c45 0 60 3 60 14 0 8
-10 16 -22 18 -17 2 -24 11 -28 33 -4 23 -11 31 -30 33 -14 2 -29 0 -33 -4z
m43 -49 c0 -8 -7 -15 -15 -15 -8 0 -15 7 -15 15 0 8 7 15 15 15 8 0 15 -7 15
-15z"/>
<path d="M5630 2368 c-52 -18 -107 -78 -112 -124 -12 -96 29 -141 148 -168
157 -35 204 -61 204 -116 0 -70 -55 -110 -150 -110 -85 0 -142 35 -159 96 -6
23 -14 30 -38 32 -31 3 -31 3 -23 -34 25 -111 150 -173 282 -139 74 18 104 38
130 85 24 45 20 115 -11 158 -24 34 -62 50 -195 81 -107 25 -126 39 -126 97 0
37 5 47 33 68 28 21 45 26 95 26 76 0 116 -22 137 -72 12 -32 20 -38 44 -38
28 0 29 2 22 28 -17 58 -42 92 -83 113 -50 25 -147 34 -198 17z"/>
<path d="M2577 2353 c-11 -11 -8 -348 4 -401 28 -133 162 -190 312 -133 38 15
94 78 101 113 3 17 6 120 6 229 l0 199 -29 0 -30 0 -3 -212 c-3 -194 -5 -215
-23 -239 -45 -59 -154 -75 -214 -32 -55 40 -61 70 -61 286 l0 197 -28 0 c-16
0 -32 -3 -35 -7z"/>
<path d="M3138 2304 c-1 -31 -2 -155 0 -275 l3 -219 27 0 c25 0 27 3 27 42 2
272 6 408 13 407 4 0 70 -101 146 -225 l139 -225 36 3 36 3 2 273 2 272 -34 0
-35 0 -1 -227 c0 -180 -3 -224 -12 -209 -7 10 -37 57 -68 105 -31 48 -58 91
-60 97 -2 6 -35 61 -74 122 -68 110 -71 112 -106 112 l-37 0 -4 -56z"/>
<path d="M3710 2085 l0 -275 30 0 30 0 0 275 0 275 -30 0 -30 0 0 -275z"/>
<path d="M3885 2338 c4 -13 32 -90 62 -173 30 -82 71 -196 91 -253 l37 -102
35 2 c31 3 36 8 52 48 31 79 178 488 178 495 0 3 -15 5 -33 5 l-33 0 -78 -235
c-43 -129 -81 -237 -84 -239 -4 -2 -43 103 -86 235 l-80 239 -34 0 c-30 0 -33
-2 -27 -22z"/>
<path d="M4450 2085 l0 -275 194 0 194 0 4 25 c3 13 3 27 0 30 -3 3 -79 5
-169 5 l-163 0 0 95 0 94 153 3 152 3 3 28 3 27 -156 0 -156 0 3 93 3 92 163
3 162 2 0 25 0 25 -195 0 -195 0 0 -275z"/>
<path d="M4960 2085 l0 -275 35 0 35 0 0 120 0 120 119 0 c105 0 121 -2 145
-21 23 -18 26 -28 27 -87 2 -112 8 -126 52 -130 34 -3 37 -1 29 15 -5 10 -13
60 -17 112 -6 81 -11 98 -32 118 l-24 25 30 34 c71 80 39 206 -60 234 -19 6
-103 10 -186 10 l-153 0 0 -275z m325 211 c27 -12 35 -22 41 -50 3 -20 3 -51
0 -70 -11 -58 -27 -64 -169 -68 l-127 -3 0 96 c0 53 3 99 7 102 13 14 213 7
248 -7z"/>
<path d="M6050 2085 l0 -275 30 0 30 0 0 275 0 275 -30 0 -30 0 0 -275z"/>
<path d="M6210 2335 c0 -25 0 -25 95 -25 l95 0 0 -250 0 -250 30 0 30 0 0 250
0 250 95 0 c95 0 95 0 95 25 l0 25 -220 0 -220 0 0 -25z"/>
<path d="M6696 2348 c5 -7 50 -79 101 -161 l92 -147 3 -113 3 -112 33 -3 32
-3 0 115 0 114 49 79 c28 43 73 115 100 161 l51 83 -37 -3 c-36 -3 -39 -7
-113 -130 -73 -125 -94 -146 -107 -110 -4 9 -28 52 -55 94 -26 43 -48 80 -48
83 0 3 -10 19 -22 35 -17 23 -30 30 -55 30 -25 0 -32 -3 -27 -12z"/>
<path d="M454 2169 c-10 -17 13 -36 27 -22 12 12 4 33 -11 33 -5 0 -12 -5 -16
-11z"/>
<path d="M2070 2126 c0 -8 4 -17 9 -20 11 -7 33 18 24 27 -12 12 -33 7 -33 -7z"/>
<path d="M458 2052 c-19 -11 -28 -25 -27 -42 0 -25 0 -25 9 -3 6 15 15 21 25
17 19 -8 19 -18 0 -37 -13 -13 -13 -16 0 -21 8 -3 15 -1 15 4 0 5 7 7 15 4 10
-4 13 -13 10 -25 -4 -12 -1 -21 9 -25 8 -3 12 -12 9 -20 -7 -18 7 -18 35 2 12
8 22 23 22 32 -1 16 -1 16 -11 0 -5 -10 -14 -18 -19 -18 -15 0 -12 38 3 43 7
4 6 6 -5 6 -12 1 -15 7 -10 24 5 21 5 21 -12 4 -10 -9 -23 -14 -29 -10 -7 4
-8 8 0 10 5 2 8 16 5 30 -4 22 -2 25 14 20 18 -7 18 -6 0 8 -24 18 -25 18 -58
-3z m32 -12 c0 -5 -8 -10 -17 -10 -15 0 -16 2 -3 10 19 12 20 12 20 0z m40
-100 c0 -5 -5 -10 -11 -10 -5 0 -7 5 -4 10 3 6 8 10 11 10 2 0 4 -4 4 -10z"/>
<path d="M2011 2024 c-6 -15 -10 -28 -9 -29 9 -8 68 -35 76 -35 10 0 35 50 28
57 -3 3 -11 -4 -18 -16 -19 -31 -31 -25 -24 12 l6 32 -19 -25 c-23 -28 -38
-22 -21 9 6 12 7 21 2 21 -5 0 -14 -12 -21 -26z"/>
<path d="M1976 1958 c-22 -31 -21 -36 17 -58 41 -26 55 -25 32 0 -18 19 -17
20 13 26 18 4 29 10 27 15 -3 4 -12 6 -20 2 -9 -3 -15 1 -15 10 0 8 -7 18 -16
21 -22 8 -21 9 -38 -16z m34 -12 c0 -16 -18 -31 -27 -22 -8 8 5 36 17 36 5 0
10 -6 10 -14z"/>
<path d="M610 1910 c0 -5 -6 -7 -12 -5 -15 5 -66 -31 -57 -39 7 -7 89 36 89
47 0 4 -4 7 -10 7 -5 0 -10 -4 -10 -10z"/>
<path d="M1925 1884 c-16 -24 -16 -26 2 -40 45 -36 55 -38 74 -13 10 13 15 26
13 29 -3 3 -10 -3 -15 -13 -6 -9 -17 -17 -24 -17 -18 0 -18 4 -4 33 10 21 10
21 -5 3 -12 -15 -19 -17 -28 -8 -9 9 -7 16 7 32 10 11 13 20 8 20 -6 0 -18
-12 -28 -26z"/>
<path d="M588 1864 c-44 -23 -32 -37 12 -14 22 11 40 23 40 25 0 9 -25 4 -52
-11z"/>
<path d="M1891 1833 c0 -13 60 -56 67 -49 3 4 -7 18 -23 31 -31 25 -45 31 -44
18z"/>
<path d="M1867 1814 c-3 -4 -2 -15 4 -26 6 -11 8 -26 5 -34 -6 -14 27 -38 38
-27 3 4 -1 17 -9 30 -18 27 -9 32 11 6 7 -10 16 -15 20 -10 4 4 -5 21 -21 37
-30 31 -37 35 -48 24z"/>
<path d="M660 1770 c-11 -11 -18 -25 -15 -31 4 -5 16 2 27 16 25 33 17 44 -12
15z"/>
<path d="M1825 1769 c-4 -6 5 -24 21 -40 30 -32 58 -41 30 -10 -10 11 -15 24
-12 30 4 5 -2 15 -13 21 -14 7 -22 7 -26 -1z"/>
<path d="M706 1735 c-3 -8 -13 -15 -23 -15 -13 0 -14 -3 -5 -12 10 -10 18 -6
39 15 21 20 24 27 11 27 -9 0 -18 -7 -22 -15z"/>
<path d="M1800 1743 c0 -6 9 -22 20 -36 24 -30 24 -33 4 -41 -10 -4 -23 3 -36
19 -28 35 -44 31 -18 -5 37 -52 101 -27 71 28 -13 24 -41 48 -41 35z"/>
<path d="M746 1684 c-22 -47 -17 -51 16 -14 19 22 23 32 14 40 -9 7 -17 0 -30
-26z"/>
<path d="M2546 1656 c-21 -44 -21 -118 0 -162 21 -45 37 -44 18 1 -17 41 -18
110 -3 154 16 44 5 49 -15 7z"/>
<path d="M3052 1683 c-18 -7 -42 -57 -42 -87 0 -66 54 -109 109 -87 32 14 61
61 36 61 -7 0 -17 -9 -20 -20 -3 -11 -18 -23 -32 -26 -21 -6 -31 -1 -50 20
-29 34 -29 65 -2 100 25 31 47 33 83 5 21 -16 26 -17 26 -5 0 32 -66 56 -108
39z"/>
<path d="M4107 1683 c-11 -11 -8 -173 3 -173 6 0 10 37 10 90 0 90 -1 96 -13
83z"/>
<path d="M4350 1611 c0 -75 2 -82 25 -97 31 -20 80 -11 101 21 17 26 16 150
-1 150 -5 0 -11 -31 -13 -70 -2 -51 -7 -73 -19 -82 -44 -34 -73 -1 -73 82 0
35 -4 67 -10 70 -6 4 -10 -23 -10 -74z"/>
<path d="M4780 1676 c0 -9 5 -16 10 -16 6 0 10 4 10 9 0 6 -4 13 -10 16 -5 3
-10 -1 -10 -9z"/>
<path d="M5586 1682 c-3 -6 -1 -14 5 -17 15 -10 25 3 12 16 -7 7 -13 7 -17 1z"/>
<path d="M685 1669 c-9 -14 -2 -20 14 -10 8 6 9 11 3 15 -6 3 -14 1 -17 -5z"/>
<path d="M2701 1648 c-5 -18 -18 -57 -29 -85 -15 -40 -17 -53 -7 -53 7 0 16
11 19 25 5 21 12 25 41 25 28 0 38 -5 47 -25 10 -23 28 -34 28 -19 0 4 -12 42
-26 85 -20 61 -30 79 -45 79 -12 0 -21 -11 -28 -32z m39 -10 c0 -7 3 -23 6
-35 5 -20 2 -23 -21 -23 -22 0 -26 3 -20 18 4 9 10 25 12 35 6 20 23 23 23 5z"/>
<path d="M6015 1665 c15 -37 18 -134 5 -165 -15 -37 -7 -51 11 -19 31 59 27
162 -9 191 -14 11 -15 11 -7 -7z"/>
<path d="M792 1658 c-7 -7 -12 -18 -12 -26 0 -12 3 -12 17 -1 15 12 16 12 11
-3 -7 -17 19 -48 40 -48 11 0 42 38 42 52 0 17 -17 7 -28 -17 -6 -14 -17 -25
-23 -25 -8 0 -6 7 4 18 10 10 17 24 17 31 0 7 -9 3 -20 -10 l-19 -24 -1 27 c0
14 6 29 13 31 6 3 3 6 -8 6 -12 1 -26 -4 -33 -11z"/>
<path d="M1690 1662 c0 -4 12 -22 28 -40 l27 -32 24 20 23 20 -29 -6 c-24 -5
-31 -1 -43 20 -13 25 -30 35 -30 18z"/>
<path d="M3650 1656 c0 -8 -6 -17 -12 -20 -10 -5 -10 -7 0 -12 7 -3 12 -26 12
-60 0 -40 4 -56 15 -61 9 -3 19 -2 23 2 4 4 1 10 -5 12 -8 3 -13 23 -13 53 0
29 5 51 13 54 10 5 10 7 0 12 -7 3 -13 12 -13 20 0 8 -4 14 -10 14 -5 0 -10
-6 -10 -14z"/>
<path d="M5710 1656 c0 -8 -6 -17 -12 -20 -10 -5 -10 -7 0 -12 7 -3 12 -26 12
-60 0 -40 4 -56 15 -61 9 -3 19 -2 23 2 4 4 1 10 -5 12 -8 3 -13 23 -13 53 0
29 5 51 13 54 10 5 10 7 0 12 -7 3 -13 12 -13 20 0 8 -4 14 -10 14 -5 0 -10
-6 -10 -14z"/>
<path d="M3273 1632 c-41 -26 -32 -115 14 -127 28 -7 78 19 67 36 -4 6 -13 4
-24 -6 -22 -20 -54 -16 -58 8 -3 14 4 17 42 17 42 0 46 2 46 23 0 42 -52 71
-87 49z m56 -25 c14 -18 4 -27 -31 -27 -26 0 -37 17 -21 33 11 12 40 8 52 -6z"/>
<path d="M3444 1629 c-5 -9 3 -120 10 -126 3 -4 6 14 6 38 0 52 18 83 46 77
15 -2 20 -13 22 -56 2 -28 7 -52 13 -52 15 0 11 106 -5 119 -13 11 -85 11 -92
0z"/>
<path d="M3770 1573 c0 -35 4 -63 10 -63 6 0 10 20 10 45 0 34 5 48 20 57 28
18 25 25 -10 25 l-30 0 0 -64z"/>
<path d="M3920 1625 c-7 -9 -10 -19 -6 -22 4 -4 11 -2 15 6 10 15 53 11 58 -6
2 -6 -11 -14 -29 -18 -41 -9 -58 -22 -58 -46 0 -27 37 -44 66 -30 15 6 25 7
29 1 4 -6 10 -10 14 -10 11 0 1 112 -11 128 -14 17 -63 15 -78 -3z m70 -69 c0
-19 -26 -38 -46 -34 -27 5 -28 27 -2 37 33 14 48 13 48 -3z"/>
<path d="M4580 1573 c0 -36 4 -63 10 -63 6 0 10 19 10 43 0 51 11 70 36 65 15
-2 20 -14 22 -56 4 -72 22 -66 22 8 0 64 1 63 -62 64 l-38 1 0 -62z"/>
<path d="M4780 1575 c0 -37 4 -65 10 -65 6 0 10 28 10 65 0 37 -4 65 -10 65
-6 0 -10 -28 -10 -65z"/>
<path d="M4885 1619 c18 -64 39 -109 50 -109 11 0 55 97 55 121 0 25 -18 3
-34 -41 -10 -28 -20 -49 -22 -47 -3 2 -10 24 -17 47 -7 24 -18 45 -26 48 -10
3 -11 -2 -6 -19z"/>
<path d="M5093 1632 c-6 -4 -17 -21 -23 -37 -24 -62 33 -115 86 -80 14 9 22
20 18 26 -4 6 -13 4 -24 -6 -22 -20 -54 -16 -58 8 -3 14 4 17 42 17 37 0 46 3
46 18 0 45 -51 77 -87 54z m55 -34 c3 -14 -3 -18 -27 -18 -29 0 -41 17 -24 34
13 13 48 1 51 -16z"/>
<path d="M5270 1573 c0 -36 4 -63 10 -63 6 0 10 22 10 49 0 41 4 51 20 56 30
10 24 22 -10 21 l-30 -1 0 -62z"/>
<path d="M5410 1620 c-14 -26 -6 -39 37 -56 19 -8 33 -20 30 -27 -6 -19 -46
-21 -53 -3 -8 20 -24 21 -24 1 0 -9 11 -21 25 -27 36 -16 75 3 75 36 0 21 -7
27 -40 37 -22 7 -40 16 -40 21 0 16 32 21 52 9 25 -15 35 -7 18 14 -18 22 -67
19 -80 -5z"/>
<path d="M5584 1626 c-9 -25 1 -109 14 -114 9 -3 12 14 12 62 0 61 -13 87 -26
52z"/>
<path d="M5820 1629 c0 -7 10 -38 21 -71 21 -56 21 -59 4 -78 -21 -24 -16 -35
8 -17 17 12 80 167 72 175 -9 10 -23 -11 -35 -53 -7 -24 -16 -43 -20 -40 -4 2
-13 25 -20 50 -11 41 -30 62 -30 34z"/>
<path d="M1616 1608 c-3 -13 -6 -36 -6 -53 l0 -30 19 24 c12 16 24 22 35 18
22 -9 20 5 -5 37 -25 32 -35 33 -43 4z m34 -19 c0 -5 -4 -9 -10 -9 -5 0 -10 7
-10 16 0 8 5 12 10 9 6 -3 10 -10 10 -16z"/>
<path d="M1531 1565 c0 -16 3 -37 7 -47 6 -14 10 -15 37 -2 l30 14 -27 -5
c-24 -5 -28 -2 -28 17 0 13 -5 30 -10 38 -7 11 -10 8 -9 -15z"/>
<path d="M1020 1566 c0 -8 4 -17 8 -20 13 -8 35 11 28 23 -10 16 -36 14 -36
-3z"/>
<path d="M1427 1572 c-30 -6 -18 -46 16 -50 28 -3 35 -16 17 -27 -6 -4 -17 -2
-25 5 -9 7 -15 8 -20 0 -8 -12 17 -23 42 -18 28 5 24 52 -4 56 -13 2 -23 8
-23 13 0 6 9 7 20 4 11 -3 20 -2 20 3 0 13 -20 19 -43 14z"/>
<path d="M1153 1556 c3 -8 9 -31 13 -50 3 -20 10 -36 15 -36 11 0 52 80 45 87
-2 3 -12 -10 -22 -29 l-18 -33 -9 38 c-5 20 -14 37 -19 37 -6 0 -8 -6 -5 -14z"/>
<path d="M1240 1516 c0 -37 4 -45 23 -50 31 -8 37 -7 37 4 0 6 -12 10 -26 10
-32 0 -27 22 7 31 23 7 23 7 2 8 -14 1 -23 7 -23 17 0 11 6 14 20 9 11 -4 20
-2 20 4 0 6 -13 11 -30 11 -29 0 -30 -2 -30 -44z"/>
<path d="M1320 1515 c0 -25 5 -45 10 -45 6 0 10 9 10 20 0 26 14 25 33 -2 8
-13 18 -20 23 -15 4 4 3 12 -4 19 -6 6 -8 24 -5 39 5 28 4 29 -31 29 l-36 0 0
-45z m53 20 c1 -5 -6 -11 -15 -13 -11 -2 -18 3 -18 13 0 17 30 18 33 0z"/>
</g>
</svg>
